<svg width="17" height="17" viewBox="0 0 17 17" fill="none" xmlns="http://www.w3.org/2000/svg">
<path d="M14.9773 15.6591L1.34091 2.02285C1.15263 1.83457 1.15263 1.52931 1.34091 1.34103C1.52919 1.15275 1.83445 1.15275 2.02273 1.34103L15.6591 14.9773C15.8474 15.1656 15.8474 15.4709 15.6591 15.6591C15.4708 15.8474 15.1656 15.8474 14.9773 15.6591Z" fill="black" stroke="black" stroke-linejoin="round"/>
<path d="M1.34091 14.9772L14.9773 1.34091C15.1656 1.15263 15.4708 1.15263 15.6591 1.34091C15.8474 1.52918 15.8474 1.83444 15.6591 2.02272L2.02273 15.659C1.83445 15.8473 1.52919 15.8473 1.34091 15.659C1.15263 15.4707 1.15263 15.1655 1.34091 14.9772Z" fill="black" stroke="black" stroke-linejoin="round"/>
</svg>
