<svg width="110" height="109" viewBox="0 0 110 109" fill="none" xmlns="http://www.w3.org/2000/svg">
<path d="M5 30L105 30" stroke="#444" stroke-width="9"/>
<path d="M96 5H14C9.02944 5 5 9.02944 5 14V95C5 99.9706 9.02943 104 14 104H96C100.971 104 105 99.9706 105 95V14C105 9.02944 100.971 5 96 5Z" stroke="#444" stroke-width="9"/>
<rect x="14.5" y="39.5" width="14" height="14" rx="2.5" stroke="#444" stroke-width="3"/>
<rect x="34.5" y="39.5" width="15" height="14" rx="2.5" stroke="#444" stroke-width="3"/>
<rect x="55.5" y="39.5" width="40" height="14" rx="2.5" stroke="#444" stroke-width="3"/>
<rect x="14.5" y="59.5" width="81" height="20" rx="2.5" stroke="#444" stroke-width="3"/>
<path d="M17.9645 84.0909V95H16.6435V85.4759H16.5795L13.9162 87.2443V85.902L16.6435 84.0909H17.9645ZM21.1019 95V94.0412L24.7028 90.0994C25.1254 89.6378 25.4734 89.2365 25.7468 88.8956C26.0202 88.5511 26.2227 88.228 26.354 87.9261C26.489 87.6207 26.5565 87.3011 26.5565 86.9673C26.5565 86.5838 26.4641 86.2518 26.2795 85.9712C26.0984 85.6907 25.8498 85.4741 25.5337 85.3214C25.2177 85.1687 24.8626 85.0923 24.4684 85.0923C24.0494 85.0923 23.6836 85.1793 23.3711 85.3533C23.0621 85.5238 22.8224 85.7635 22.652 86.0724C22.4851 86.3814 22.4016 86.7436 22.4016 87.1591H21.1445C21.1445 86.5199 21.2919 85.9588 21.5866 85.4759C21.8814 84.9929 22.2827 84.6165 22.7905 84.3466C23.3018 84.0767 23.8754 83.9418 24.511 83.9418C25.1502 83.9418 25.7166 84.0767 26.2102 84.3466C26.7038 84.6165 27.0909 84.9805 27.3714 85.4386C27.652 85.8967 27.7923 86.4062 27.7923 86.9673C27.7923 87.3686 27.7195 87.761 27.5739 88.1445C27.4318 88.5245 27.1832 88.9489 26.8281 89.4176C26.4766 89.8828 25.9883 90.451 25.3633 91.1222L22.913 93.7429V93.8281H27.984V95H21.1019ZM33.87 95.1491C33.1669 95.1491 32.5401 95.0284 31.9897 94.7869C31.4428 94.5455 31.0078 94.2099 30.6847 93.7802C30.3651 93.3469 30.1911 92.8445 30.1626 92.2727H31.505C31.5334 92.6243 31.6541 92.9279 31.8672 93.1836C32.0803 93.4357 32.359 93.631 32.7035 93.7695C33.0479 93.908 33.4297 93.9773 33.8487 93.9773C34.3175 93.9773 34.733 93.8956 35.0952 93.7322C35.4574 93.5689 35.7415 93.3416 35.9474 93.0504C36.1534 92.7592 36.2564 92.4219 36.2564 92.0384C36.2564 91.6371 36.157 91.2837 35.9581 90.9783C35.7592 90.6694 35.468 90.4279 35.0845 90.2539C34.701 90.0799 34.2322 89.9929 33.6783 89.9929H32.8047V88.821H33.6783C34.1115 88.821 34.4915 88.7429 34.8182 88.5866C35.1484 88.4304 35.4059 88.2102 35.5906 87.9261C35.7788 87.642 35.8729 87.3082 35.8729 86.9247C35.8729 86.5554 35.7912 86.234 35.6278 85.9606C35.4645 85.6871 35.2337 85.4741 34.9354 85.3214C34.6406 85.1687 34.2926 85.0923 33.8913 85.0923C33.5149 85.0923 33.1598 85.1616 32.826 85.3001C32.4957 85.435 32.2259 85.6321 32.0163 85.8913C31.8068 86.147 31.6932 86.456 31.6754 86.8182H30.397C30.4183 86.2464 30.5906 85.7457 30.9137 85.3161C31.2369 84.8828 31.6594 84.5455 32.1815 84.304C32.707 84.0625 33.2841 83.9418 33.9126 83.9418C34.5874 83.9418 35.1662 84.0785 35.6491 84.3519C36.1321 84.6218 36.5032 84.9787 36.7624 85.4226C37.0217 85.8665 37.1513 86.3459 37.1513 86.8608C37.1513 87.4751 36.9897 87.9989 36.6665 88.4322C36.3469 88.8654 35.9119 89.1655 35.3615 89.3324V89.4176C36.0504 89.5312 36.5884 89.8242 36.9755 90.2965C37.3626 90.7653 37.5561 91.3459 37.5561 92.0384C37.5561 92.6314 37.3945 93.1641 37.0714 93.6364C36.7518 94.1051 36.315 94.4744 35.761 94.7443C35.207 95.0142 34.5767 95.1491 33.87 95.1491ZM65.6864 95H64.3015L68.3072 84.0909H69.6708L73.6765 95H72.2915L69.0316 85.8168H68.9464L65.6864 95ZM66.1978 90.7386H71.7802V91.9105H66.1978V90.7386ZM75.3757 95V84.0909H79.1896C79.9496 84.0909 80.5763 84.2223 81.07 84.4851C81.5636 84.7443 81.9311 85.0941 82.1726 85.5344C82.4141 85.9712 82.5348 86.456 82.5348 86.9886C82.5348 87.4574 82.4513 87.8445 82.2844 88.1499C82.1211 88.4553 81.9045 88.6967 81.6346 88.8743C81.3683 89.0518 81.0788 89.1832 80.7663 89.2685V89.375C81.1001 89.3963 81.4357 89.5135 81.7731 89.7266C82.1104 89.9396 82.3928 90.245 82.62 90.6428C82.8473 91.0405 82.9609 91.527 82.9609 92.1023C82.9609 92.6491 82.8366 93.141 82.5881 93.5778C82.3395 94.0146 81.9471 94.3608 81.4109 94.6165C80.8746 94.8722 80.1768 95 79.3175 95H75.3757ZM76.6967 93.8281H79.3175C80.1804 93.8281 80.793 93.6612 81.1552 93.3274C81.521 92.9901 81.7038 92.5817 81.7038 92.1023C81.7038 91.733 81.6097 91.392 81.4215 91.0795C81.2333 90.7635 80.9652 90.5114 80.6172 90.3232C80.2692 90.1314 79.8572 90.0355 79.3814 90.0355H76.6967V93.8281ZM76.6967 88.8849H79.147C79.5447 88.8849 79.9034 88.8068 80.223 88.6506C80.5462 88.4943 80.8018 88.2741 80.9901 87.9901C81.1818 87.706 81.2777 87.3722 81.2777 86.9886C81.2777 86.5092 81.1108 86.1026 80.777 85.7688C80.4432 85.4315 79.9141 85.2628 79.1896 85.2628H76.6967V88.8849ZM93.91 87.5H92.589C92.5108 87.12 92.3741 86.7862 92.1788 86.4986C91.987 86.2109 91.7527 85.9695 91.4757 85.7741C91.2022 85.5753 90.8986 85.4261 90.5648 85.3267C90.231 85.2273 89.883 85.1776 89.5208 85.1776C88.8603 85.1776 88.2619 85.3445 87.7257 85.6783C87.193 86.0121 86.7686 86.5039 86.4526 87.1538C86.1401 87.8036 85.9838 88.6009 85.9838 89.5455C85.9838 90.4901 86.1401 91.2873 86.4526 91.9371C86.7686 92.587 87.193 93.0788 87.7257 93.4126C88.2619 93.7464 88.8603 93.9134 89.5208 93.9134C89.883 93.9134 90.231 93.8636 90.5648 93.7642C90.8986 93.6648 91.2022 93.5174 91.4757 93.3221C91.7527 93.1232 91.987 92.88 92.1788 92.5923C92.3741 92.3011 92.5108 91.9673 92.589 91.5909H93.91C93.8105 92.1484 93.6294 92.6474 93.3667 93.0877C93.1039 93.5281 92.7772 93.9027 92.3865 94.2116C91.9959 94.517 91.5574 94.7496 91.0708 94.9094C90.5879 95.0692 90.0712 95.1491 89.5208 95.1491C88.5904 95.1491 87.763 94.9219 87.0385 94.4673C86.3141 94.0128 85.7441 93.3665 85.3287 92.5284C84.9132 91.6903 84.7054 90.696 84.7054 89.5455C84.7054 88.3949 84.9132 87.4006 85.3287 86.5625C85.7441 85.7244 86.3141 85.0781 87.0385 84.6236C87.763 84.169 88.5904 83.9418 89.5208 83.9418C90.0712 83.9418 90.5879 84.0217 91.0708 84.1815C91.5574 84.3413 91.9959 84.5756 92.3865 84.8846C92.7772 85.19 93.1039 85.5629 93.3667 86.0032C93.6294 86.44 93.8105 86.9389 93.91 87.5Z" fill="#444"/>
</svg>
