<svg width="25" height="25" viewBox="0 0 25 25" fill="none" xmlns="http://www.w3.org/2000/svg">
<g clip-path="url(#clip0_114_237)">
<path d="M11.1145 13.5625C10.8853 13.5521 10.6562 13.5417 10.4166 13.5417C7.89575 13.5417 5.54159 14.2396 3.53117 15.4375C2.6145 15.9792 2.08325 17 2.08325 18.0729V19.7917C2.08325 20.3646 2.552 20.8334 3.12492 20.8334H11.7291C10.9062 19.6563 10.4166 18.2188 10.4166 16.6667C10.4166 15.5521 10.677 14.5104 11.1145 13.5625Z" fill="#7A7A7A"/>
<path d="M10.4167 12.5C12.7179 12.5 14.5833 10.6345 14.5833 8.33335C14.5833 6.03217 12.7179 4.16669 10.4167 4.16669C8.11548 4.16669 6.25 6.03217 6.25 8.33335C6.25 10.6345 8.11548 12.5 10.4167 12.5Z" fill="#7A7A7A"/>
<path d="M21.6145 16.6667C21.6145 16.4375 21.5833 16.2292 21.552 16.0104L22.427 15.25C22.6145 15.0833 22.6562 14.8125 22.5312 14.5937L21.9166 13.5312C21.7916 13.3125 21.5312 13.2188 21.302 13.3021L20.1978 13.6771C19.8645 13.3958 19.4895 13.1771 19.0728 13.0208L18.8437 11.8854C18.7916 11.6458 18.5833 11.4688 18.3333 11.4688H17.1041C16.8541 11.4688 16.6458 11.6458 16.5937 11.8854L16.3645 13.0208C15.9478 13.1771 15.5728 13.3958 15.2395 13.6771L14.1353 13.3021C13.8958 13.2188 13.6458 13.3229 13.5208 13.5312L12.9062 14.5937C12.7812 14.8125 12.8228 15.0833 13.0103 15.25L13.8853 16.0104C13.8541 16.2292 13.8228 16.4375 13.8228 16.6667C13.8228 16.8958 13.8541 17.1042 13.8853 17.3229L13.0103 18.0833C12.8228 18.25 12.7812 18.5208 12.9062 18.7396L13.5208 19.8021C13.6458 20.0208 13.9062 20.1146 14.1353 20.0312L15.2395 19.6562C15.5728 19.9375 15.9478 20.1562 16.3645 20.3125L16.5937 21.4479C16.6458 21.6875 16.8541 21.8646 17.1041 21.8646H18.3333C18.5833 21.8646 18.7916 21.6875 18.8437 21.4479L19.0728 20.3125C19.4895 20.1562 19.8645 19.9375 20.1978 19.6562L21.302 20.0312C21.5416 20.1146 21.7916 20.0104 21.9166 19.8021L22.5312 18.7396C22.6562 18.5208 22.6145 18.25 22.427 18.0833L21.552 17.3229C21.5833 17.1042 21.6145 16.8958 21.6145 16.6667ZM17.7083 18.75C16.5624 18.75 15.6249 17.8125 15.6249 16.6667C15.6249 15.5208 16.5624 14.5833 17.7083 14.5833C18.8541 14.5833 19.7916 15.5208 19.7916 16.6667C19.7916 17.8125 18.8541 18.75 17.7083 18.75Z" fill="#7A7A7A"/>
</g>
<defs>
<clipPath id="clip0_114_237">
<rect width="25" height="25" fill="white"/>
</clipPath>
</defs>
</svg>
