<svg width="25" height="25" viewBox="0 0 25 25" fill="none" xmlns="http://www.w3.org/2000/svg">
<g clip-path="url(#clip0_114_245)">
<path d="M20.3125 12.5C20.3125 12.2604 20.3021 12.0312 20.2813 11.7916L22.2188 10.3229C22.6354 10.0104 22.75 9.42706 22.4896 8.96873L20.5417 5.60415C20.2813 5.14581 19.7188 4.95831 19.2396 5.16665L17 6.11456C16.6146 5.84373 16.2084 5.60415 15.7813 5.40623L15.4792 2.99998C15.4167 2.47915 14.9688 2.08331 14.4479 2.08331H10.5625C10.0313 2.08331 9.58335 2.47915 9.52085 2.99998L9.21877 5.40623C8.79169 5.60415 8.38543 5.84373 8.00002 6.11456L5.76043 5.16665C5.28127 4.95831 4.71877 5.14581 4.45835 5.60415L2.51043 8.97915C2.25002 9.43748 2.3646 10.0104 2.78127 10.3333L4.71877 11.8021C4.69793 12.0312 4.68752 12.2604 4.68752 12.5C4.68752 12.7396 4.69793 12.9687 4.71877 13.2083L2.78127 14.6771C2.3646 14.9896 2.25002 15.5729 2.51043 16.0312L4.45835 19.3958C4.71877 19.8541 5.28127 20.0416 5.76043 19.8333L8.00002 18.8854C8.38543 19.1562 8.79169 19.3958 9.21877 19.5937L9.52085 22C9.58335 22.5208 10.0313 22.9166 10.5521 22.9166H14.4375C14.9584 22.9166 15.4063 22.5208 15.4688 22L15.7709 19.5937C16.1979 19.3958 16.6042 19.1562 16.9896 18.8854L19.2292 19.8333C19.7084 20.0416 20.2709 19.8541 20.5313 19.3958L22.4792 16.0312C22.7396 15.5729 22.625 15 22.2084 14.6771L20.2709 13.2083C20.3021 12.9687 20.3125 12.7396 20.3125 12.5ZM12.5417 16.1458C10.5313 16.1458 8.89585 14.5104 8.89585 12.5C8.89585 10.4896 10.5313 8.85415 12.5417 8.85415C14.5521 8.85415 16.1875 10.4896 16.1875 12.5C16.1875 14.5104 14.5521 16.1458 12.5417 16.1458Z" fill="#7A7A7A"/>
</g>
<defs>
<clipPath id="clip0_114_245">
<rect width="25" height="25" fill="white"/>
</clipPath>
</defs>
</svg>
